<?xml version="1.0" encoding="UTF-8" standalone="no"?>
<!-- Created with Inkscape (http://www.inkscape.org/) -->

<svg
   version="1.1"
   id="svg2"
   width="120.96"
   height="50.880001"
   viewBox="0 0 120.96 50.880001"
   sodipodi:docname="logo-unifor-horizontal-negative.svg"
   xml:space="preserve"
   inkscape:version="1.2.2 (732a01da63, 2022-12-09)"
   inkscape:export-filename="logo-unifor-horizontal-negative.png"
   inkscape:export-xdpi="200"
   inkscape:export-ydpi="200"
   xmlns:inkscape="http://www.inkscape.org/namespaces/inkscape"
   xmlns:sodipodi="http://sodipodi.sourceforge.net/DTD/sodipodi-0.dtd"
   xmlns="http://www.w3.org/2000/svg"
   xmlns:svg="http://www.w3.org/2000/svg"><defs
     id="defs6" /><sodipodi:namedview
     id="namedview4"
     pagecolor="#000000"
     bordercolor="#000000"
     borderopacity="0.25"
     inkscape:showpageshadow="2"
     inkscape:pageopacity="0"
     inkscape:pagecheckerboard="0"
     inkscape:deskcolor="#d1d1d1"
     showgrid="false"
     inkscape:zoom="8"
     inkscape:cx="61.625"
     inkscape:cy="17.75"
     inkscape:window-width="1920"
     inkscape:window-height="1017"
     inkscape:window-x="-8"
     inkscape:window-y="-8"
     inkscape:window-maximized="1"
     inkscape:current-layer="svg2" /><text
     xml:space="preserve"
     style="font-size:21.3333px;line-height:0;display:inline;fill:#ffffff"
     x="56.250053"
     y="33.20311"
     id="text658"
     inkscape:label="Unifor"><tspan
       sodipodi:role="line"
       id="tspan656"
       x="56.250053"
       y="33.20311"
       style="font-style:normal;font-variant:normal;font-weight:bold;font-stretch:normal;font-size:21.3333px;font-family:Ebrima;-inkscape-font-specification:'Ebrima Bold'">Unifor</tspan></text><style
     type="text/css"
     id="style756">
	.st0{fill:#E4F2FE;}
</style><g
     id="g760"
     transform="matrix(0.9759632,0,0,0.98535156,0.72512758,0.27499995)"
     inkscape:label="logo"
     inkscape:highlight-color="#ffffff"
     style="stroke-width:1.00036084;stroke-dasharray:none;fill:#ffffff;fill-opacity:1">
	<path
   class="st0"
   d="m 45.5,34.2 h -6.2 c 0,0 0,0 0,0 1.5,-2.6 2.4,-5.7 2.4,-9 0,-3 -0.7,-5.8 -2,-8.2 0,0 0.1,0 0.1,0 h 5.8 c 1.3,0 1.8,-1.7 0.8,-2.5 L 25.4,0.6 c -1.1,-0.8 -2.6,-0.8 -3.8,0 L 0.7,14.5 C -0.4,15.2 0.2,17 1.5,17 h 5.8 c 0,0 0.1,0 0.1,0 -1.3,2.5 -2,5.3 -2,8.2 0,3.3 0.9,6.3 2.4,9 0,0 0,0 0,0 H 1.5 c -1.3,0 -1.8,1.7 -0.8,2.5 l 20.9,13.9 c 1.1,0.8 2.6,0.8 3.8,0 L 46.3,36.7 c 1.1,-0.8 0.5,-2.5 -0.8,-2.5 z m -16.5,2 c -0.1,0.2 -0.3,0.2 -0.4,0 -0.5,-2.3 -2.2,-4.4 -5,-4.4 -2.8,0 -4.5,2.2 -5,4.4 0,0.2 -0.3,0.2 -0.4,0 -0.3,-0.7 -0.4,-1.4 -0.4,-2.2 0,-3.2 2.6,-5.9 5.9,-5.9 3.2,0 5.8,2.6 5.9,5.8 -0.2,0.8 -0.3,1.6 -0.6,2.3 z m 4.6,-2.5 c -0.4,0.9 -0.9,1.8 -1.6,2.5 -0.2,0.3 -0.7,0 -0.5,-0.3 0,0 0,0 0,0 1.4,-4 -0.6,-8.5 -4.6,-10.2 -4,-1.7 -8.6,0.1 -10.5,3.9 0,0 0,0 0,0 -0.1,0.3 -0.6,0.2 -0.6,-0.2 0.1,-1 0.3,-1.9 0.7,-2.9 2,-4.7 7.4,-6.9 12.2,-5 4.7,2.1 6.9,7.5 4.9,12.2 z m 3.6,-6.3 c -0.1,0.5 -0.8,0.5 -0.9,0 -0.1,-0.8 -0.3,-1.5 -0.6,-2.3 -2.3,-5.9 -9.3,-9 -15.2,-6.7 -5.9,2.3 -8.4,9.1 -6.1,14.9 0.3,0.8 0.7,1.5 1.1,2.1 0.3,0.5 -0.3,1 -0.7,0.6 -1.8,-1.4 -3.2,-3.4 -4.1,-5.6 -2.8,-7.1 0.7,-15 7.8,-17.8 7.1,-2.8 15.1,0.7 17.9,7.8 0.9,2.4 1.1,4.8 0.8,7 z"
   id="path758"
   style="stroke-width:1.00036084;stroke-dasharray:none;fill:#ffffff;fill-opacity:1" />
</g></svg>
